<?xml version="1.0" encoding="UTF-8"?>
<svg version="1.1" xmlns="http://www.w3.org/2000/svg" width="913" height="176">
<path d="M0 0 C301.29 0 602.58 0 913 0 C913 58.08 913 116.16 913 176 C611.71 176 310.42 176 0 176 C0 117.92 0 59.84 0 0 Z " fill="#FBFBFB" transform="translate(0,0)"/>
<path d="M0 0 C8.15144825 5.74633896 13.28690204 12.91507075 15.94140625 22.52734375 C16.33547938 25.4185961 16.1870928 28.11980855 15.9934082 31.02368164 C15.49262114 37.65288541 15.49262114 37.65288541 17.984375 43.60546875 C20.0935333 45.33398374 20.0935333 45.33398374 22.33203125 46.80078125 C25.49350482 49.11420668 26.17862387 51.56490259 27.3125 55.25 C27.3125 56.24 27.3125 57.23 27.3125 58.25 C26.35988281 58.32476562 25.40726563 58.39953125 24.42578125 58.4765625 C16.35050075 58.92962918 16.35050075 58.92962918 10 63.25 C7.7187399 67.30557351 7.09657332 69.72101538 6.75 74.375 C6.62431641 76.01855469 6.62431641 76.01855469 6.49609375 77.6953125 C6.43550781 78.53835937 6.37492187 79.38140625 6.3125 80.25 C4.3325 80.58 2.3525 80.91 0.3125 81.25 C-0.0175 87.19 -0.3475 93.13 -0.6875 99.25 C-12.7708641 99.31791537 -24.85410036 99.37289665 -36.93761253 99.40543652 C-42.54913835 99.42105804 -48.16052621 99.44223205 -53.77197266 99.47631836 C-59.19253511 99.50903718 -64.6129653 99.52687942 -70.03361893 99.53463173 C-72.09636134 99.5401528 -74.15909694 99.55093388 -76.22178268 99.56719017 C-79.12245794 99.58913093 -82.02259429 99.59195999 -84.92333984 99.59057617 C-85.76635651 99.601362 -86.60937317 99.61214783 -87.47793579 99.6232605 C-95.78688852 99.58067688 -103.94212675 97.9759954 -110.15234375 92.1328125 C-116.47412951 84.37937551 -118.36596947 76.00459877 -117.6875 66.25 C-116.47728061 58.67780161 -113.47545586 53.28787261 -107.6875 48.25 C-102.21149321 44.29783711 -97.40283019 42.61629074 -90.6875 42.25 C-90.8525 41.26 -91.0175 40.27 -91.1875 39.25 C-92.29272942 31.1720732 -92.12538977 24.483626 -87.55078125 17.51953125 C-84.29770255 13.3633897 -80.96687849 10.73341181 -75.77734375 9.6328125 C-67.83586539 8.98332356 -61.27520754 9.83013651 -53.6875 12.25 C-53.39875 11.64929688 -53.11 11.04859375 -52.8125 10.4296875 C-49.13059457 3.29599573 -43.62955843 -0.11266181 -36.6875 -3.75 C-36.04941406 -4.09417969 -35.41132812 -4.43835937 -34.75390625 -4.79296875 C-22.87378621 -10.23483019 -10.46394113 -6.44747888 0 0 Z " fill="#FBFAFB" transform="translate(129.6875,49.75)"/>
<path d="M0 0 C0.60585937 0.53109375 1.21171875 1.0621875 1.8359375 1.609375 C2.74472656 2.34414063 2.74472656 2.34414063 3.671875 3.09375 C10.22441699 8.87372153 14.76406852 17.92723626 15.8359375 26.609375 C15.73295294 28.9021365 15.60628437 31.1939088 15.4609375 33.484375 C15.33928592 38.47065855 15.33928592 38.47065855 17.28515625 42.90234375 C19.06356784 44.59127551 20.89975659 46.10634418 22.8359375 47.609375 C25.96614611 51.63392893 26.85310663 56.09972585 27.9921875 60.98828125 C28.87455792 63.72934862 30.09098041 65.35487121 31.8359375 67.609375 C32.0234375 70.359375 32.0234375 70.359375 31.8359375 72.609375 C29.9609375 72.421875 29.9609375 72.421875 27.8359375 71.609375 C27.11865972 69.96385538 26.45268522 68.29515211 25.8359375 66.609375 C22.53207392 64.40679928 21.26775873 64.28687597 17.3984375 64.234375 C16.45097656 64.20601563 15.50351563 64.17765625 14.52734375 64.1484375 C11.22846159 64.44672255 11.22846159 64.44672255 7.8359375 68.609375 C7.5059375 72.899375 7.1759375 77.189375 6.8359375 81.609375 C17.7259375 81.609375 28.6159375 81.609375 39.8359375 81.609375 C39.8359375 93.159375 39.8359375 104.709375 39.8359375 116.609375 C33.58792664 116.63228013 27.34006035 116.65220839 21.09204102 116.66430664 C18.96475736 116.66934798 16.83747719 116.67618091 14.71020508 116.68481445 C11.65965924 116.69688879 8.60915905 116.70260514 5.55859375 116.70703125 C4.12266624 116.71477318 4.12266624 116.71477318 2.6577301 116.72267151 C1.33647377 116.72278481 1.33647377 116.72278481 -0.01147461 116.72290039 C-0.79090927 116.725121 -1.57034393 116.72734161 -2.37339783 116.72962952 C-4.1640625 116.609375 -4.1640625 116.609375 -5.1640625 115.609375 C-5.23632752 113.75649998 -5.2478747 111.90103622 -5.2265625 110.046875 C-5.21753906 109.03496094 -5.20851563 108.02304688 -5.19921875 106.98046875 C-5.18761719 106.19800781 -5.17601562 105.41554688 -5.1640625 104.609375 C-6.9347963 104.62269867 -6.9347963 104.62269867 -8.74130249 104.6362915 C-19.8929713 104.71755105 -31.04457965 104.77742373 -42.19647789 104.81662369 C-47.92912559 104.83745464 -53.66153334 104.86569032 -59.39404297 104.91113281 C-64.93132495 104.95475056 -70.46837682 104.97854587 -76.00581741 104.98888397 C-78.11323287 104.99624677 -80.22063644 105.01062438 -82.32795334 105.03229523 C-85.29101038 105.06154078 -88.25312932 105.06532217 -91.21630859 105.06347656 C-92.07802673 105.07785767 -92.93974487 105.09223877 -93.82757568 105.10705566 C-102.81872546 105.04687438 -110.73638477 101.97394245 -117.33984375 95.8125 C-125.05058209 86.50017361 -127.06209238 76.36073748 -126.1640625 64.609375 C-124.45353646 57.64361836 -120.12852929 52.6079228 -115.1640625 47.609375 C-114.4215625 46.84625 -113.6790625 46.083125 -112.9140625 45.296875 C-108.66094582 42.68700794 -103.99451894 41.72604794 -99.1640625 40.609375 C-99.4940625 39.619375 -99.8240625 38.629375 -100.1640625 37.609375 C-101.10611755 29.52115951 -99.90711747 23.28274304 -95.1640625 16.609375 C-89.45862347 10.13381017 -84.48501207 7.10690949 -75.98046875 6.4375 C-70.48838764 6.24713324 -65.45694601 7.20794958 -60.1640625 8.609375 C-59.78636719 8.11308594 -59.40867187 7.61679687 -59.01953125 7.10546875 C-53.10958638 -0.18853815 -45.33193606 -6.65284987 -35.80078125 -8.17578125 C-22.46171948 -9.26266776 -10.7912311 -8.89725993 0 0 Z M-55.7265625 8.359375 C-57.77047195 10.67590846 -57.77047195 10.67590846 -58.1640625 13.609375 C-58.87949219 13.38121094 -59.59492187 13.15304688 -60.33203125 12.91796875 C-68.65477411 10.51697049 -77.48013278 8.90747518 -85.62109375 12.77734375 C-90.82623719 16.37941889 -93.63927139 20.67033131 -95.9140625 26.546875 C-96.61839825 32.35764497 -96.1194945 37.876783 -95.1640625 43.609375 C-95.78152344 43.68414062 -96.39898437 43.75890625 -97.03515625 43.8359375 C-105.71810567 45.18397531 -112.02455151 48.62451644 -117.6015625 55.484375 C-122.36715393 62.46774859 -123.08866571 70.31106117 -122.1640625 78.609375 C-120.15004562 86.45946351 -116.21888488 92.51490529 -109.7890625 97.421875 C-103.13919323 100.43014919 -96.80504102 100.89713382 -89.62695312 100.83642578 C-88.70894928 100.83671783 -87.79094543 100.83700989 -86.84512329 100.83731079 C-83.83675398 100.83592701 -80.82863809 100.82041088 -77.8203125 100.8046875 C-75.72424454 100.80095398 -73.62817483 100.79810861 -71.53210449 100.79611206 C-66.03465902 100.78850228 -60.53732044 100.76887669 -55.03991699 100.7467041 C-49.42245937 100.72618835 -43.80498435 100.71709811 -38.1875 100.70703125 C-27.17963316 100.6856282 -16.17187347 100.65046779 -5.1640625 100.609375 C-4.8340625 94.669375 -4.5040625 88.729375 -4.1640625 82.609375 C-2.1840625 82.279375 -0.2040625 81.949375 1.8359375 81.609375 C1.86171875 80.81273437 1.8875 80.01609375 1.9140625 79.1953125 C2.33672479 71.29921254 3.20550774 67.23980476 8.8359375 61.609375 C11.19624446 61.15089811 13.5757549 60.78794369 15.9609375 60.484375 C17.24226562 60.31679687 18.52359375 60.14921875 19.84375 59.9765625 C20.83117187 59.85539062 21.81859375 59.73421875 22.8359375 59.609375 C22.40038541 54.74178615 21.85173051 51.8665073 18.4609375 48.296875 C17.55214844 47.31267578 17.55214844 47.31267578 16.625 46.30859375 C14.74238711 44.42364979 14.74238711 44.42364979 11.8359375 42.609375 C11.69178719 40.03869451 11.70480247 37.66709096 11.8359375 35.109375 C12.11161102 23.32498841 9.20683667 14.41870164 1.01953125 5.66796875 C-8.04650249 -2.81197796 -17.37391552 -5.78160824 -29.55859375 -5.66796875 C-39.61039101 -4.89475358 -49.10029695 0.89512739 -55.7265625 8.359375 Z " fill="#B83A6F" transform="translate(134.1640625,48.390625)"/>
<path d="M0 0 C4.846875 -0.103125 9.69375 -0.20625 14.6875 -0.3125 C16.93759888 -0.38078003 16.93759888 -0.38078003 19.2331543 -0.45043945 C30.39751278 -0.56412946 41.15598278 1.31534362 49.5625 9.3125 C55.87633286 15.57500089 58.17296048 19.97276952 58.5 28.9375 C58.23228341 37.02081369 56.37344843 42.67659548 50.9375 48.6875 C42.93459728 56.10271656 34.46370083 59.14182593 23.73046875 59.09765625 C22.48418701 59.09515869 21.23790527 59.09266113 19.95385742 59.09008789 C18.38095947 59.08098389 16.80806152 59.07187988 15.1875 59.0625 C7.6696875 59.0315625 7.6696875 59.0315625 0 59 C0 39.53 0 20.06 0 0 Z " fill="#FBFBFB" transform="translate(244,60)"/>
<path d="M0 0 C4.846875 -0.103125 9.69375 -0.20625 14.6875 -0.3125 C16.93759888 -0.38078003 16.93759888 -0.38078003 19.2331543 -0.45043945 C30.46644951 -0.56483146 40.03098267 1.55664902 49 8.6875 C55.15046973 14.75868191 58.22696839 20.81474621 58.625 29.5 C58.22210563 38.29136183 55.11112403 44.3108992 48.8125 50.375 C44.28475325 54.12916188 39.56606727 56.22167165 34 58 C33.01 58.33 32.02 58.66 31 59 C28.64319787 59.08397157 26.28405919 59.10728187 23.92578125 59.09765625 C22.67450439 59.09515869 21.42322754 59.09266113 20.1340332 59.09008789 C17.74737427 59.07643188 17.74737427 59.07643188 15.3125 59.0625 C10.259375 59.041875 5.20625 59.02125 0 59 C0 39.53 0 20.06 0 0 Z " fill="#FBFBFB" transform="translate(622,60)"/>
<path d="M0 0 C4.03335965 1.49223347 5.24899769 3.64448888 7.25 7.36328125 C7.85231445 8.46736328 8.45462891 9.57144531 9.07519531 10.70898438 C9.71680188 11.91015358 10.35840332 13.11132552 11 14.3125 C11.66891789 15.54434267 12.33917914 16.77545676 13.01074219 18.00585938 C14.03107578 19.87543011 15.05070325 21.74533783 16.06634521 23.61746216 C19.05303084 29.12138319 22.13108552 34.56991386 25.25 40 C25.72663086 40.83362061 26.20326172 41.66724121 26.69433594 42.52612305 C29.16480605 46.83848461 31.66243501 51.13343225 34.1875 55.4140625 C34.70151367 56.28933594 35.21552734 57.16460937 35.74511719 58.06640625 C36.7243469 59.7312874 37.70909433 61.3929396 38.70019531 63.05078125 C39.13428711 63.78941406 39.56837891 64.52804688 40.015625 65.2890625 C40.59231934 66.25900146 40.59231934 66.25900146 41.18066406 67.24853516 C42 69 42 69 42 72 C40.35 72.33 38.7 72.66 37 73 C35.74854552 70.98005527 34.49881552 68.95907547 33.25 66.9375 C32.90195312 66.37611328 32.55390625 65.81472656 32.1953125 65.23632812 C31.84726562 64.67236328 31.49921875 64.10839844 31.140625 63.52734375 C30.82641602 63.01937256 30.51220703 62.51140137 30.18847656 61.98803711 C29 60 29 60 27.53320312 56.3359375 C26.15730447 53.94609476 25.49856581 53.14925965 22.82635498 52.34925842 C19.97342619 52.0900858 17.19262506 52.05712303 14.328125 52.09765625 C13.29057068 52.08536484 12.25301636 52.07307343 11.184021 52.06040955 C7.87196505 52.02863059 4.56212644 52.04497171 1.25 52.0625 C-0.99611449 52.04939416 -3.24221304 52.03315592 -5.48828125 52.01367188 C-10.99251898 51.97277469 -16.49570853 51.97137264 -22 52 C-22.29583984 52.92071289 -22.59167969 53.84142578 -22.89648438 54.79003906 C-24.11667922 58.3394023 -25.70778924 61.45415478 -27.5 64.75 C-28.1084375 65.87921875 -28.716875 67.0084375 -29.34375 68.171875 C-31 71 -31 71 -33 73 C-35.125 72.625 -35.125 72.625 -37 72 C-36.45075382 67.11408484 -34.87885255 63.26533845 -32.60546875 58.96875 C-32.26181778 58.30383545 -31.91816681 57.6389209 -31.56410217 56.95385742 C-30.44688161 54.79812932 -29.31760347 52.64899837 -28.1875 50.5 C-27.41261864 49.01261315 -26.63820751 47.52498123 -25.86425781 46.03710938 C-20.13000394 35.04050119 -14.28286287 24.10488709 -8.25585938 13.265625 C-7.37470553 11.6759851 -6.5016991 10.08181466 -5.63476562 8.484375 C-5.19326172 7.67484375 -4.75175781 6.8653125 -4.296875 6.03125 C-3.90338867 5.30486328 -3.50990234 4.57847656 -3.10449219 3.83007812 C-2 2 -2 2 0 0 Z " fill="#EFA4C7" transform="translate(837,53)"/>
<path d="M0 0 C0.65678741 -0.00191345 1.31357483 -0.0038269 1.99026489 -0.00579834 C3.38739401 -0.00716145 4.78453573 -0.0034562 6.18164062 0.00488281 C8.27765078 0.01541072 10.3727697 0.00508279 12.46875 -0.0078125 C29.14725497 -0.02788842 41.96177642 2.42500894 54.5 14.109375 C61.24148652 21.58186609 62.75721138 28.93036386 62.65625 38.75390625 C62.12639506 47.57500978 57.7883502 54.24974645 51.37109375 60.18359375 C46.44258458 64.21757421 41.41298346 67.06810568 35.4453125 69.265625 C34.58220459 69.607146 33.71909668 69.94866699 32.82983398 70.30053711 C28.85518606 71.43389809 25.14962342 71.55334794 21.0546875 71.53125 C19.87595062 71.53412018 19.87595062 71.53412018 18.67340088 71.53704834 C17.02282386 71.53840272 15.37223593 71.53475875 13.72167969 71.52636719 C11.18921275 71.51559906 8.6574459 71.52631693 6.125 71.5390625 C4.5182276 71.5377419 2.91145563 71.53518156 1.3046875 71.53125 C0.54637634 71.53529846 -0.21193481 71.53934692 -0.9932251 71.54351807 C-6.32472665 71.49558585 -6.32472665 71.49558585 -8.5546875 69.265625 C-8.80865479 66.49499512 -8.80865479 66.49499512 -8.81347656 62.91992188 C-8.8169812 62.26935318 -8.82048584 61.61878448 -8.82409668 60.94850159 C-8.83291379 58.79368483 -8.82706513 56.63919522 -8.8203125 54.484375 C-8.82165916 52.98986752 -8.8235997 51.49536047 -8.82611084 50.00085449 C-8.82906207 46.86690098 -8.82476457 43.73306138 -8.81542969 40.59912109 C-8.80403507 36.57712487 -8.81059456 32.55539555 -8.82257462 28.53340912 C-8.8297933 25.44681783 -8.82750527 22.36029007 -8.82231903 19.2736969 C-8.82098255 17.79049142 -8.82263019 16.30728022 -8.82727814 14.82408142 C-8.83234362 12.75300769 -8.82463334 10.68236934 -8.81347656 8.61132812 C-8.81188538 7.43155396 -8.81029419 6.25177979 -8.80865479 5.03625488 C-8.28775691 -0.64642669 -4.84525641 0.00901922 0 0 Z M-1.5546875 6.265625 C-1.5546875 25.735625 -1.5546875 45.205625 -1.5546875 65.265625 C3.3334375 65.348125 8.2215625 65.430625 13.2578125 65.515625 C14.77608643 65.55204102 16.29436035 65.58845703 17.85864258 65.62597656 C30.43086007 65.72798238 40.19762429 63.14117284 49.4453125 54.265625 C55.3382325 47.50821795 56.99171075 41.43833874 56.8125 32.6171875 C56.00812242 25.27510281 52.63374287 20.07466952 47.4453125 14.953125 C36.98409834 6.63589731 26.01340855 5.56225885 13.1328125 5.953125 C8.2859375 6.05625 3.4390625 6.159375 -1.5546875 6.265625 Z " fill="#DD83AB" transform="translate(623.5546875,53.734375)"/>
<path d="M0 0 C2.03448387 -0.00215593 4.06839757 -0.02022421 6.1027832 -0.03930664 C22.37174785 -0.06333761 35.5733236 2.4717528 47.55004883 14.03295898 C52.97025399 19.83373174 56.73521678 25.91777156 57.13598633 33.99780273 C56.54886925 45.47327288 51.95311327 53.47847691 43.63598633 61.18530273 C35.11305638 68.7591728 24.68918077 71.34878918 13.52661133 71.31811523 C12.75919617 71.31907196 11.99178101 71.32002869 11.20111084 71.3210144 C9.58744219 71.32169233 7.97377077 71.31986516 6.36010742 71.31567383 C3.88039111 71.31029059 1.40085351 71.31564691 -1.07885742 71.32202148 C-2.64786824 71.32136121 -4.21687895 71.3200811 -5.78588867 71.31811523 C-6.90299225 71.32115158 -6.90299225 71.32115158 -8.04266357 71.32424927 C-13.24904237 71.30027403 -13.24904237 71.30027403 -14.36401367 70.18530273 C-14.45826962 68.03786725 -14.48144015 65.88729248 -14.47753906 63.73779297 C-14.47768509 63.06465057 -14.47783112 62.39150818 -14.47798157 61.69796753 C-14.47728246 59.46324489 -14.46949019 57.22860464 -14.46166992 54.99389648 C-14.45980573 53.44832912 -14.45838184 51.90276116 -14.4573822 50.35719299 C-14.45355707 46.28173197 -14.44372684 42.20630637 -14.43267822 38.13085938 C-14.42246399 33.97518391 -14.41788456 29.81950275 -14.4128418 25.66381836 C-14.40210456 17.50429686 -14.38502821 9.3448042 -14.36401367 1.18530273 C-10.14962388 -0.92189216 -4.63489244 -0.00054896 0 0 Z M-8.36401367 6.18530273 C-8.36401367 25.65530273 -8.36401367 45.12530273 -8.36401367 65.18530273 C-3.43463867 65.24717773 1.49473633 65.30905273 6.57348633 65.37280273 C8.10996826 65.40011475 9.6464502 65.42742676 11.22949219 65.45556641 C23.8563055 65.53209255 33.33598579 63.15158896 42.68676758 54.22827148 C49.14094055 47.23959143 50.1125557 40.99221275 49.94458008 31.59545898 C49.30239936 24.49895565 45.93833255 19.68356293 40.83520508 14.85717773 C33.02069749 8.91648635 25.1529794 6.04793801 15.46411133 6.08764648 C14.21533203 6.09014404 12.96655273 6.0926416 11.67993164 6.09521484 C9.30692871 6.10887085 9.30692871 6.10887085 6.88598633 6.12280273 C1.85348633 6.14342773 -3.17901367 6.16405273 -8.36401367 6.18530273 Z " fill="#B32B64" transform="translate(252.364013671875,53.814697265625)"/>
<path d="M0 0 C2.89492199 2.80700679 5.39080704 5.93993385 6.80078125 9.74609375 C6.47078125 11.06609375 6.14078125 12.38609375 5.80078125 13.74609375 C-10.36921875 13.74609375 -26.53921875 13.74609375 -43.19921875 13.74609375 C-41.13139144 23.05131663 -40.33405072 26.59125405 -32.91796875 31.73046875 C-27.14116663 35.14403364 -19.67087479 34.23820926 -13.19921875 33.74609375 C-8.88807018 32.50792161 -6.07864794 30.67577604 -3.01171875 27.43359375 C-2.41359375 26.87671875 -1.81546875 26.31984375 -1.19921875 25.74609375 C1.55078125 25.99609375 1.55078125 25.99609375 3.80078125 26.74609375 C3.80078125 29.55582477 3.26791742 31.24648288 1.33984375 33.30859375 C-6.27100425 39.52153089 -15.44291834 41.50853844 -25.14453125 41.21875 C-33.74511631 39.88796894 -40.50264591 35.355281 -45.89453125 28.67578125 C-49.81886174 22.87153196 -50.04479718 17.66203523 -49.19921875 10.74609375 C-46.68791098 3.8195565 -40.47297786 -1.80229249 -34.18359375 -5.41015625 C-22.9266095 -10.1965905 -9.25935704 -7.44088612 0 0 Z " fill="#E28CB3" transform="translate(741.19921875,85.25390625)"/>
<path d="M0 0 C0 -1.65 0 -3.3 0 -5 C1.875 -5.625 1.875 -5.625 4 -6 C6.50903582 -3.49096418 6.25250205 -2.68515225 6.25878906 0.78173828 C6.26509338 1.77682404 6.27139771 2.77190979 6.27789307 3.79714966 C6.2738446 4.8772934 6.26979614 5.95743713 6.265625 7.0703125 C6.26849518 8.73560501 6.26849518 8.73560501 6.27142334 10.43453979 C6.27278684 12.79002101 6.26907899 15.1455097 6.26074219 17.50097656 C6.25010562 21.08936734 6.26060072 24.67725051 6.2734375 28.265625 C6.27211475 30.5546886 6.26954997 32.84375188 6.265625 35.1328125 C6.26967346 36.20081085 6.27372192 37.2688092 6.27789307 38.36917114 C6.2305246 45.98800259 6.14355606 53.67398358 0.6875 59.6171875 C-5.74794119 64.89067403 -13.10138652 67.17198151 -21.3125 67.0625 C-22.63701172 67.04896484 -22.63701172 67.04896484 -23.98828125 67.03515625 C-24.65214844 67.02355469 -25.31601562 67.01195312 -26 67 C-26.66 65.68 -27.32 64.36 -28 63 C-24.83695006 59.83695006 -20.42123197 60.28804123 -16.1171875 59.96484375 C-11.12632424 59.47317878 -7.96777718 58.29355339 -4 55 C-0.52193151 49.84480464 -0.35827053 43.02882826 0 37 C-0.64066406 37.34933594 -1.28132813 37.69867188 -1.94140625 38.05859375 C-7.00757015 40.72380367 -11.1945028 42.68333652 -17 43 C-17.68578125 43.061875 -18.3715625 43.12375 -19.078125 43.1875 C-28.064056 43.69020943 -34.7140151 40.42009673 -41.4375 34.625 C-45.75961724 30.69832527 -48.53061667 26.9336458 -49.46875 21.0703125 C-49.55840635 12.62020153 -47.88787842 8.19214717 -42.203125 2.0625 C-30.58119578 -9.09455205 -13.04770407 -8.83876727 0 0 Z M-39 7 C-39.99 8.485 -39.99 8.485 -41 10 C-41.433125 10.61875 -41.86625 11.2375 -42.3125 11.875 C-43.80949904 16.50208793 -43.46801853 20.62347492 -41.9375 25.125 C-38.33005984 30.47797572 -33.15486226 34.94837925 -27 37 C-18.26991522 37.94790465 -9.55274991 37.33641712 -2.40063477 31.75097656 C0.46436911 28.16934718 -0.53296079 22.95310002 -0.5625 18.5625 C-0.54251953 17.51255859 -0.52253906 16.46261719 -0.50195312 15.38085938 C-0.50259766 14.36958984 -0.50324219 13.35832031 -0.50390625 12.31640625 C-0.50205322 11.39287354 -0.5002002 10.46934082 -0.49829102 9.51782227 C-1.14731323 6.26070979 -2.4798664 5.08975919 -5 3 C-15.19561511 -2.50892107 -31.02068377 -2.16574517 -39 7 Z " fill="#C0477A" transform="translate(381,84)"/>
<path d="M0 0 C12.54 0 25.08 0 38 0 C38 8.91 38 17.82 38 27 C25.46 27 12.92 27 0 27 C0 18.09 0 9.18 0 0 Z " fill="#FAF6F8" transform="translate(133,134)"/>
<path d="M0 0 C0.9590625 0.6496875 0.9590625 0.6496875 1.9375 1.3125 C1.9375 -0.3375 1.9375 -1.9875 1.9375 -3.6875 C3.8125 -4.3125 3.8125 -4.3125 5.9375 -4.6875 C8.3437622 -2.2812378 8.18951459 -1.73642823 8.19628906 1.546875 C8.20259338 2.42118164 8.20889771 3.29548828 8.21539307 4.19628906 C8.2113446 5.14213867 8.20729614 6.08798828 8.203125 7.0625 C8.20599518 8.5160791 8.20599518 8.5160791 8.20892334 9.99902344 C8.21028579 12.05013285 8.20658518 14.10125086 8.19824219 16.15234375 C8.18754359 19.29967539 8.19813554 22.4464362 8.2109375 25.59375 C8.20961592 27.5833346 8.20705355 29.57291884 8.203125 31.5625 C8.20717346 32.50834961 8.21122192 33.45419922 8.21539307 34.42871094 C8.20908875 35.30301758 8.20278442 36.17732422 8.19628906 37.078125 C8.19469788 37.84930664 8.19310669 38.62048828 8.19146729 39.41503906 C7.9375 41.3125 7.9375 41.3125 5.9375 43.3125 C3.8125 42.9375 3.8125 42.9375 1.9375 42.3125 C1.9375 40.6625 1.9375 39.0125 1.9375 37.3125 C0.885625 37.93125 -0.16625 38.55 -1.25 39.1875 C-9.7009864 44.15866847 -19.28126473 44.91202866 -28.828125 42.66015625 C-35.90282326 39.77832986 -42.9576462 34.23732117 -46.4375 27.32421875 C-48.20445992 21.63681652 -47.93658102 15.52076663 -45.5625 10.0625 C-41.53698056 3.19378152 -35.26370827 -1.3801072 -27.8359375 -4.03125 C-17.95547336 -6.36916264 -8.7760211 -4.83576673 0 0 Z M-38.0625 9.3125 C-41.1303282 13.9142423 -41.8303566 17.92668894 -41.0625 23.3125 C-39.23784667 28.67912745 -35.77074553 32.27728152 -31.0625 35.3125 C-22.94193166 38.63301056 -13.58617556 38.62511173 -5.375 35.5625 C-1.87475273 34.08004233 0.17457116 32.729198 1.9375 29.3125 C2.42348428 26.18085545 2.44714758 23.101907 2.4375 19.9375 C2.48003906 18.68066406 2.48003906 18.68066406 2.5234375 17.3984375 C2.53672372 13.1734194 2.33121844 10.21348737 -0.33984375 6.828125 C-6.32581728 1.29732593 -13.26512652 0.79547066 -21.19921875 1.02734375 C-28.19543107 1.72410159 -33.12790354 4.37790354 -38.0625 9.3125 Z " fill="#D775A0" transform="translate(595.0625,82.6875)"/>
<path d="M0 0 C0.9590625 0.6496875 0.9590625 0.6496875 1.9375 1.3125 C1.9375 -0.3375 1.9375 -1.9875 1.9375 -3.6875 C3.8125 -4.3125 3.8125 -4.3125 5.9375 -4.6875 C8.3437622 -2.2812378 8.18951459 -1.73642823 8.19628906 1.546875 C8.20259338 2.42118164 8.20889771 3.29548828 8.21539307 4.19628906 C8.2113446 5.14213867 8.20729614 6.08798828 8.203125 7.0625 C8.20599518 8.5160791 8.20599518 8.5160791 8.20892334 9.99902344 C8.21028579 12.05013285 8.20658518 14.10125086 8.19824219 16.15234375 C8.18754359 19.29967539 8.19813554 22.4464362 8.2109375 25.59375 C8.20961592 27.5833346 8.20705355 29.57291884 8.203125 31.5625 C8.20717346 32.50834961 8.21122192 33.45419922 8.21539307 34.42871094 C8.20908875 35.30301758 8.20278442 36.17732422 8.19628906 37.078125 C8.19469788 37.84930664 8.19310669 38.62048828 8.19146729 39.41503906 C7.9375 41.3125 7.9375 41.3125 5.9375 43.3125 C3.8125 42.9375 3.8125 42.9375 1.9375 42.3125 C1.9375 40.6625 1.9375 39.0125 1.9375 37.3125 C0.885625 37.93125 -0.16625 38.55 -1.25 39.1875 C-9.7009864 44.15866847 -19.28126473 44.91202866 -28.828125 42.66015625 C-35.90282326 39.77832986 -42.9576462 34.23732117 -46.4375 27.32421875 C-48.20445992 21.63681652 -47.93658102 15.52076663 -45.5625 10.0625 C-41.53698056 3.19378152 -35.26370827 -1.3801072 -27.8359375 -4.03125 C-17.95547336 -6.36916264 -8.7760211 -4.83576673 0 0 Z M-38.0625 9.3125 C-41.1303282 13.9142423 -41.8303566 17.92668894 -41.0625 23.3125 C-39.23784667 28.67912745 -35.77074553 32.27728152 -31.0625 35.3125 C-23.57368886 38.39860642 -14.65349816 38.80271164 -6.93359375 36.296875 C-2.91566948 34.3551707 -0.56945532 33.07293298 1.9375 29.3125 C2.24368921 27.25274109 2.24368921 27.25274109 2.203125 25.00390625 C2.20570313 24.17439453 2.20828125 23.34488281 2.2109375 22.49023438 C2.19933594 21.19569336 2.19933594 21.19569336 2.1875 19.875 C2.19523437 19.01583984 2.20296875 18.15667969 2.2109375 17.27148438 C2.20707031 16.0252832 2.20707031 16.0252832 2.203125 14.75390625 C2.20086914 13.99795166 2.19861328 13.24199707 2.19628906 12.46313477 C1.90039567 10.00414903 1.22994672 8.4170923 -0.0625 6.3125 C-11.61293917 -2.26782624 -28.10757857 -0.64242143 -38.0625 9.3125 Z " fill="#C65183" transform="translate(442.0625,82.6875)"/>
<path d="M0 0 C3.01174675 2.63817431 4.7216525 5.74511599 6.6875 9.20703125 C7.03127686 9.81004562 7.37505371 10.41306 7.72924805 11.03434753 C8.45425896 12.30814686 9.17694887 13.58326969 9.89746094 14.85961914 C10.9917838 16.79794699 12.09286516 18.73229934 13.1953125 20.66601562 C16.25949658 26.05820574 19.22451456 31.44902912 22 37 C8.8 37 -4.4 37 -18 37 C-16.41077352 32.23232055 -14.61849524 28.04110093 -12.3046875 23.6328125 C-11.95238068 22.95322479 -11.60007385 22.27363708 -11.23709106 21.57345581 C-10.1204732 19.42182111 -8.99784665 17.27338956 -7.875 15.125 C-7.11288081 13.65906228 -6.35115796 12.19291844 -5.58984375 10.7265625 C-3.73113839 7.14864118 -1.8670408 3.57357827 0 0 Z " fill="#FBF9FA" transform="translate(837,63)"/>
<path d="M0 0 C3.875 1.75 3.875 1.75 5 4 C5.74830078 3.566875 5.74830078 3.566875 6.51171875 3.125 C14.08162741 -0.78906408 21.55449808 -1.26413438 29.84375 0.66015625 C35.71797752 2.70375046 39.67658468 5.71442066 43 11 C44.18975795 14.56927385 44.12478155 17.79946972 44.09765625 21.51171875 C44.0962413 22.23994339 44.09482635 22.96816803 44.09336853 23.71846008 C44.08777659 26.04151539 44.07522562 28.36447388 44.0625 30.6875 C44.05748396 32.26367048 44.05292123 33.83984248 44.04882812 35.41601562 C44.0378098 39.27738098 44.02055074 43.13867408 44 47 C42.125 47.625 42.125 47.625 40 48 C38 46 38 46 37.76049805 43.02246094 C37.76090088 41.77239258 37.76130371 40.52232422 37.76171875 39.234375 C37.74629054 37.855459 37.72998628 36.47655258 37.71289062 35.09765625 C37.69648236 32.92735655 37.6874746 30.75775854 37.69458008 28.58740234 C37.69721471 26.48975894 37.66897257 24.39423417 37.63671875 22.296875 C37.63373779 21.04229492 37.63075684 19.78771484 37.62768555 18.49511719 C36.80084892 13.89107471 35.26947629 12.29303072 32 9 C28.15157689 6.82699513 24.56605278 6.64456769 20.1875 6.5625 C19.02605469 6.52253906 17.86460937 6.48257813 16.66796875 6.44140625 C12.75618988 7.03712976 9.88083336 7.55221293 6.5949707 9.78637695 C2.72727046 15.15426891 3.92106475 23.44442989 4 29.8125 C3.99190544 31.47593304 3.98022573 33.13935276 3.96484375 34.80273438 C3.9350405 38.86950678 3.95437553 42.93340259 4 47 C1.525 47.495 1.525 47.495 -1 48 C-2.15710365 45.68579271 -2.13253337 44.34114904 -2.14526367 41.765625 C-2.15164352 40.89131836 -2.15802338 40.01701172 -2.16459656 39.11621094 C-2.16570938 38.17036133 -2.1668222 37.22451172 -2.16796875 36.25 C-2.17129715 35.28094727 -2.17462555 34.31189453 -2.17805481 33.31347656 C-2.1831227 31.26237463 -2.18546318 29.21126444 -2.18530273 27.16015625 C-2.18749104 24.01288371 -2.20565324 20.86596055 -2.22460938 17.71875 C-2.22754289 15.72916787 -2.22952797 13.73958407 -2.23046875 11.75 C-2.23765427 10.80415039 -2.24483978 9.85830078 -2.25224304 8.88378906 C-2.24916641 8.00948242 -2.24608978 7.13517578 -2.24291992 6.234375 C-2.24505745 5.07760254 -2.24505745 5.07760254 -2.24723816 3.89746094 C-2 2 -2 2 0 0 Z " fill="#CB5A8B" transform="translate(463,78)"/>
<path d="M0 0 C1.65 0 3.3 0 5 0 C6 1 6 1 6.09765625 4.81640625 C6.09098089 6.39846682 6.07901875 7.98051159 6.0625 9.5625 C6.05798828 10.36880859 6.05347656 11.17511719 6.04882812 12.00585938 C6.03700518 14.00393756 6.01906914 16.00197783 6 18 C9.96 18 13.92 18 18 18 C18.33 19.65 18.66 21.3 19 23 C18 24 18 24 15.27734375 24.09765625 C14.17519531 24.08605469 13.07304688 24.07445313 11.9375 24.0625 C10.83277344 24.05347656 9.72804688 24.04445313 8.58984375 24.03515625 C7.73519531 24.02355469 6.88054688 24.01195313 6 24 C6.04427884 28.18167817 6.11423877 32.36191937 6.20751953 36.54272461 C6.23566014 37.96350192 6.25690908 39.38443378 6.27099609 40.80541992 C6.29252394 42.85415359 6.33921514 44.901043 6.390625 46.94921875 C6.41157227 48.17987061 6.43251953 49.41052246 6.45410156 50.6784668 C7.09520552 54.57928049 8.16551696 56.27991314 11 59 C14.49975135 59.60385692 14.49975135 59.60385692 18.25 59.3125 C20.14492188 59.24482422 20.14492188 59.24482422 22.078125 59.17578125 C23.04234375 59.11777344 24.0065625 59.05976562 25 59 C25.495 60.98 25.495 60.98 26 63 C20.74343878 66.3199334 16.05076201 66.86721019 10 66 C5.76746452 64.04049283 3.08616587 61.57459272 0.81591797 57.47241211 C-1.10775219 51.64326559 -0.3953909 45.14354286 -0.25 39.0625 C-0.22990977 37.60093585 -0.21166344 36.13934514 -0.1953125 34.67773438 C-0.15150336 31.11793226 -0.08261546 27.55913746 0 24 C-1.98 24 -3.96 24 -6 24 C-6.66 22.68 -7.32 21.36 -8 20 C-7.34 19.34 -6.68 18.68 -6 18 C-4.02 18 -2.04 18 0 18 C0 12.06 0 6.12 0 0 Z " fill="#D16997" transform="translate(520,60)"/>
<path d="M0 0 C1.74609375 0.07421875 1.74609375 0.07421875 4 1 C5.53950587 3.25895812 6.80580479 5.40194316 8.0625 7.8125 C8.43882568 8.50794922 8.81515137 9.20339844 9.20288086 9.91992188 C10.0269946 11.44342044 10.84583493 12.96978007 11.66015625 14.49853516 C13.59396899 18.10892971 15.57794648 21.6911343 17.55834961 25.27612305 C19.71385302 29.17953995 21.85714196 33.08963106 24 37 C29.29934989 28.32922622 34.23124758 19.46992948 39.140625 10.57421875 C39.73875 9.49785156 40.336875 8.42148438 40.953125 7.3125 C41.49098633 6.33925781 42.02884766 5.36601563 42.58300781 4.36328125 C44 2 44 2 46 0 C48.125 0.375 48.125 0.375 50 1 C49.44864769 5.72100947 48.11974985 9.15249335 45.8671875 13.32421875 C45.55226349 13.91112991 45.23733948 14.49804108 44.91287231 15.10273743 C44.24612189 16.34112168 43.57521378 17.57727548 42.90039062 18.8112793 C41.88997166 20.66010543 40.89315309 22.51573407 39.8984375 24.37304688 C28.28720717 45.92693766 28.28720717 45.92693766 23 48 C18.41810019 41.47444855 14.61568891 34.72455582 11 27.625 C10.0010579 25.67914404 9.00105985 23.73382981 8 21.7890625 C7.51402344 20.83547852 7.02804687 19.88189453 6.52734375 18.89941406 C5.4790699 16.9094364 4.38504758 14.94309352 3.25390625 12.99902344 C2.69574219 12.03770508 2.13757813 11.07638672 1.5625 10.0859375 C1.04816406 9.22790527 0.53382813 8.36987305 0.00390625 7.48583984 C-1.18970632 4.53025542 -0.90949826 3.0063223 0 0 Z " fill="#E999BE" transform="translate(751,78)"/>
<path d="M0 0 C3.53571429 0.53571429 3.53571429 0.53571429 5 2 C5.10478906 4.13657042 5.13856654 6.27664338 5.14526367 8.41577148 C5.15030159 9.4206662 5.15030159 9.4206662 5.15544128 10.44586182 C5.16497721 12.67095774 5.16689572 14.89597863 5.16796875 17.12109375 C5.17117953 18.66187064 5.17454346 20.20264722 5.17805481 21.74342346 C5.18405272 24.97747505 5.18589404 28.21149988 5.18530273 31.44555664 C5.18520108 35.5964752 5.19885353 39.74722283 5.21607494 43.89810085 C5.2271754 47.08161716 5.22922255 50.26509188 5.22869301 53.44862556 C5.22987607 54.97928519 5.23431603 56.5099458 5.24202538 58.04058647 C5.25178599 60.17879188 5.24896305 62.31662298 5.24291992 64.45483398 C5.24434494 65.67315414 5.24576996 66.8914743 5.24723816 68.14671326 C5 71 5 71 3 73 C-0.53571429 72.46428571 -0.53571429 72.46428571 -2 71 C-2.10478906 68.86342958 -2.13856654 66.72335662 -2.14526367 64.58422852 C-2.14862228 63.91429871 -2.1519809 63.2443689 -2.15544128 62.55413818 C-2.16497721 60.32904226 -2.16689572 58.10402137 -2.16796875 55.87890625 C-2.17117953 54.33812936 -2.17454346 52.79735278 -2.17805481 51.25657654 C-2.18405272 48.02252495 -2.18589404 44.78850012 -2.18530273 41.55444336 C-2.18520108 37.4035248 -2.19885353 33.25277717 -2.21607494 29.10189915 C-2.2271754 25.91838284 -2.22922255 22.73490812 -2.22869301 19.55137444 C-2.22987607 18.02071481 -2.23431603 16.4900542 -2.24202538 14.95941353 C-2.25178599 12.82120812 -2.24896305 10.68337702 -2.24291992 8.54516602 C-2.24434494 7.32684586 -2.24576996 6.1085257 -2.24723816 4.85328674 C-2 2 -2 2 0 0 Z " fill="#F5B5D4" transform="translate(887,53)"/>
<path d="M0 0 C-0.66 0.33 -1.32 0.66 -2 1 C-1.02417969 0.97679687 -0.04835937 0.95359375 0.95703125 0.9296875 C2.22933594 0.91164062 3.50164063 0.89359375 4.8125 0.875 C6.07707031 0.85179687 7.34164062 0.82859375 8.64453125 0.8046875 C12 1 12 1 15 3 C14.2265625 2.97679687 13.453125 2.95359375 12.65625 2.9296875 C5.22884333 2.80099481 -1.24123129 2.69348283 -7.75 6.6875 C-13.27356834 12.36450079 -15.17869601 18.07776612 -15.10546875 25.8984375 C-15.0039552 27.92118901 -14.72392027 29.93255808 -14.4375 31.9375 C-14.293125 32.948125 -14.14875 33.95875 -14 35 C-15.55447069 36.55447069 -17.34987396 36.3789171 -19.5 36.6875 C-26.68679116 38.08578841 -32.40825599 41.58763266 -36.9375 47.375 C-41.09058059 53.89719186 -41.41358905 61.46924879 -42 69 C-42.33 69 -42.66 69 -43 69 C-43.18451025 57.47835991 -43.18451025 57.47835991 -42 52 C-42.66 52 -43.32 52 -44 52 C-42.0957225 45.22923555 -35.89950786 38.62015255 -30 35 C-26.37370396 33.81180938 -22.71686333 32.85923986 -19 32 C-19.33 31.01 -19.66 30.02 -20 29 C-20.93864755 20.94104028 -19.77253816 14.63339019 -15 8 C-5.70512821 -1.71153846 -5.70512821 -1.71153846 0 0 Z " fill="#BE4D7D" transform="translate(54,57)"/>
<path d="M0 0 C3.75430895 2.3164885 6.93655673 4.81061347 8.9375 8.8125 C-3.9325 8.8125 -16.8025 8.8125 -30.0625 8.8125 C-28.22894456 5.14538912 -27.74577767 4.2524979 -24.625 2.125 C-24.02816406 1.70863281 -23.43132813 1.29226562 -22.81640625 0.86328125 C-16.76784939 -2.7604644 -6.47878047 -2.54266994 0 0 Z " fill="#FAF5F7" transform="translate(731.0625,85.1875)"/>
<path d="M0 0 C1.67542976 0.28604898 3.34385343 0.61781233 5 1 C5.0505963 7.37203593 5.08568957 13.7440203 5.10986328 20.11621094 C5.11993789 22.28517594 5.13359798 24.45412731 5.15087891 26.62304688 C5.17506323 29.73571126 5.18646832 32.84819651 5.1953125 35.9609375 C5.20563507 36.934935 5.21595764 37.9089325 5.22659302 38.91244507 C5.22674408 39.81322784 5.22689514 40.71401062 5.22705078 41.64208984 C5.231492 42.43706879 5.23593323 43.23204773 5.24050903 44.05111694 C5 46 5 46 3 48 C0.875 47.625 0.875 47.625 -1 47 C-1.02527002 40.46721214 -1.04283292 33.93443679 -1.05493164 27.40161133 C-1.05997317 25.17732268 -1.06680623 22.95303737 -1.07543945 20.72875977 C-1.08751298 17.53921691 -1.09322996 14.34971771 -1.09765625 11.16015625 C-1.10281754 10.15912369 -1.10797882 9.15809113 -1.11329651 8.12672424 C-1.11337204 7.20584518 -1.11344757 6.28496613 -1.11352539 5.33618164 C-1.115746 4.52121719 -1.11796661 3.70625275 -1.12025452 2.86659241 C-1 1 -1 1 0 0 Z " fill="#B9386F" transform="translate(319,78)"/>
<path d="M0 0 C-0.99 0.495 -0.99 0.495 -2 1 C-1.02417969 0.97679687 -0.04835938 0.95359375 0.95703125 0.9296875 C2.22933594 0.91164062 3.50164063 0.89359375 4.8125 0.875 C6.07707031 0.85179687 7.34164062 0.82859375 8.64453125 0.8046875 C12 1 12 1 15 3 C14.2265625 2.97679687 13.453125 2.95359375 12.65625 2.9296875 C5.22884333 2.80099481 -1.24123129 2.69348283 -7.75 6.6875 C-10.55496054 9.57037611 -12.14842161 12.43399717 -14 16 C-15.32 15.67 -16.64 15.34 -18 15 C-16.2256969 8.69136676 -11.39815961 3.84044808 -6.3125 -0.0625 C-3.69375154 -1.12415478 -2.58491092 -1.05311186 0 0 Z " fill="#C0517F" transform="translate(54,57)"/>
<path d="M0 0 C-0.01160156 0.92941406 -0.02320313 1.85882813 -0.03515625 2.81640625 C-0.11753537 11.95709317 -0.11753537 11.95709317 1 21 C-1.31 21 -3.62 21 -6 21 C-5.67 20.34 -5.34 19.68 -5 19 C-4.34 19 -3.68 19 -3 19 C-3.32613281 18.45472656 -3.65226562 17.90945312 -3.98828125 17.34765625 C-5.19672062 14.54351701 -5.23304513 12.48074253 -5.1875 9.4375 C-5.18105469 8.48746094 -5.17460938 7.53742188 -5.16796875 6.55859375 C-5 4 -5 4 -4 1 C-1 0 -1 0 0 0 Z " fill="#B93B70" transform="translate(39,71)"/>
<path d="M0 0 C2.625 0.375 2.625 0.375 5 1 C5.625 3.375 5.625 3.375 6 6 C4 8 4 8 1.5 8.25 C-1 8 -1 8 -3 6 C-2.63318342 3.06546739 -2.13562754 2.13562754 0 0 Z " fill="#BC4175" transform="translate(319,56)"/>
<path d="M0 0 C1.17369141 -0.00386719 1.17369141 -0.00386719 2.37109375 -0.0078125 C4.5625 0.125 4.5625 0.125 7.5625 1.125 C7.5625 1.785 7.5625 2.445 7.5625 3.125 C-0.8525 3.62 -0.8525 3.62 -9.4375 4.125 C-5.91142662 0.59892662 -4.7670801 -0.01565544 0 0 Z " fill="#B22963" transform="translate(60.4375,54.875)"/>
<path d="M0 0 C0.66 0.33 1.32 0.66 2 1 C-1.96 4.96 -5.92 8.92 -10 13 C-10 8.41771462 -7.08388033 6.1816619 -4 3 C-1.625 1.0625 -1.625 1.0625 0 0 Z " fill="#F1DDE5" transform="translate(87,49)"/>
<path d="M0 0 C-0.66 1.98 -1.32 3.96 -2 6 C-3.65 6.33 -5.3 6.66 -7 7 C-3.86206897 0 -3.86206897 0 0 0 Z " fill="#BF4F7E" transform="translate(145,109)"/>
<path d="M0 0 C0.598125 0.20625 1.19625 0.4125 1.8125 0.625 C0.8225 1.12 0.8225 1.12 -0.1875 1.625 C0.1425 2.285 0.4725 2.945 0.8125 3.625 C-0.5075 3.955 -1.8275 4.285 -3.1875 4.625 C-3.1875 3.965 -3.1875 3.305 -3.1875 2.625 C-3.8475 2.295 -4.5075 1.965 -5.1875 1.625 C-2.1875 -0.375 -2.1875 -0.375 0 0 Z " fill="#BF4F7E" transform="translate(52.1875,56.375)"/>
</svg>
